<?xml version="1.0" encoding="utf-8"?>
<!-- Generator: Adobe Illustrator 22.0.1, SVG Export Plug-In . SVG Version: 6.00 Build 0)  -->
<!DOCTYPE svg PUBLIC "-//W3C//DTD SVG 1.1//EN" "http://www.w3.org/Graphics/SVG/1.1/DTD/svg11.dtd">
<svg version="1.1" id="Layer_1" xmlns="http://www.w3.org/2000/svg" xmlns:xlink="http://www.w3.org/1999/xlink" x="0px" y="0px"
	 viewBox="0 0 402.3 141.9" style="enable-background:new 0 0 402.3 141.9;" xml:space="preserve">
<style type="text/css">
	.st0{fill:#221F1F;}
</style>
<g>
	<path class="st0" d="M67.6,2.7C30.1,2.7,0.8,32.8,0.8,71.3s29.3,68.6,66.8,68.6c37.4,0,66.8-30.1,66.8-68.6S105,2.7,67.6,2.7z
		 M67.6,122.6c-26.9,0-48-22.5-48-51.3s21.1-51.3,48-51.3c26.9,0,48,22.5,48,51.3S94.5,122.6,67.6,122.6z"/>
	<path class="st0" d="M203.6,1.4c-12.6,0-52.8,4.1-52.8,57.1v77.3h18.5V58.5c0-25.5,12-40.2,34.2-40.2h0.2
		c22.3,0,34.4,14.6,34.4,40.2v77.3h18.5V58.5C256.8,5.6,216.5,1.4,203.6,1.4z"/>
	<path class="st0" d="M351.1,138.9c16.2-2.7,30.2-11.2,40.1-23.4l0.9-1.1l0,0c1.5-1.9,2.9-4,4.2-6.1l-17.3-7.2
		c-3.4,5.2-7.7,9.7-12.7,13.1c-12.1,9-26.5,8.3-26.5,8.3c-24.3,0-43.8-18.5-47.3-43.4c-0.1-0.8-0.1-1.5-0.2-2.3l108.2,0
		c0.1-1.5,0.2-4.2,0.2-5.7c0-39.1-27.4-68.6-63.8-68.6c-36.4,0-63.8,29.5-63.8,68.6c0,38.4,29.3,68.5,66.6,68.6v0
		C339.8,139.9,345.9,139.9,351.1,138.9z M337,19.9c23,0,40.3,16.8,44.2,41h-88.3C296.7,36.7,314,19.9,337,19.9z"/>
</g>
</svg>
